<svg width="170" height="188" viewBox="0 0 170 188" xmlns="http://www.w3.org/2000/svg" xmlns:xlink="http://www.w3.org/1999/xlink"><title>Group</title><defs><path d="M85 170.238c18.109 0 34.895-5.671 48.685-15.337C155.642 139.511 170 113.994 170 85.12 170 38.109 131.944 0 85 0S0 38.109 0 85.119s38.056 85.119 85 85.119z" id="a"/><path id="c" d="M0 0h3.908v13.697H0z"/><linearGradient x1="50.672%" y1="-26.56%" x2="50%" y2="81.037%" id="f"><stop stop-color="#F8FAFB" offset="0%"/><stop stop-color="#EDF2F5" offset="100%"/></linearGradient><rect id="e" width="108.389" height="90.505" rx="40"/><linearGradient x1="42.254%" y1="-30.862%" x2="53.452%" y2="46.608%" id="h"><stop stop-color="#DFEAF2" offset="0%"/><stop stop-color="#ECF4F8" offset="100%"/></linearGradient></defs><g transform="translate(0 2)" fill="none" fill-rule="evenodd"><g transform="translate(0 15.74)"><mask id="b" fill="#fff"><use xlink:href="#a"/></mask><use fill="#E5EBEF" xlink:href="#a"/><rect fill="#EEF2F5" mask="url(#b)" x="44.943" y="140.886" width="80.115" height="37.178" rx="18.589"/><path d="M44.943 159.475c0-10.266 8.32-18.589 18.593-18.589h37.066c10.269 0 18.593 8.32 18.593 18.59 0 10.266-8.321 18.589-18.589 18.589H62.367h1.16c-10.264 0-18.584-8.32-18.584-18.59z" fill="#FFF" mask="url(#b)"/></g><path fill="#EDF2F5" d="M72.299 146.843h27.356v9.784H72.299z"/><path fill="#D6DDE1" d="M72.299 146.843h27.356v3.914H72.299z"/><g transform="translate(71.74 31.395)"><g transform="translate(12.282 9.784)"><mask id="d" fill="#fff"><use xlink:href="#c"/></mask><use fill="#F5F7F9" xlink:href="#c"/><ellipse fill="#D5DCE1" mask="url(#d)" cx="1.954" cy="-3.424" rx="5.862" ry="6.359"/></g><ellipse fill="#FFF" cx="14.236" cy="5.87" rx="5.862" ry="5.87"/><rect fill="#F5F7F9" x=".558" y="21.524" width="27.356" height="7.827" rx="3.914"/><rect fill="#FFF" x=".558" y="21.524" width="13.678" height="7.827" rx="3.914"/></g><g transform="translate(31.264 56.832)"><mask id="g" fill="#fff"><use xlink:href="#e"/></mask><use fill="url(#f)" xlink:href="#e"/><rect fill="#FFF" mask="url(#g)" x="-8.896" width="106.746" height="90.505" rx="40"/></g><rect fill="url(#h)" x="44.943" y="80.313" width="80.115" height="31.308" rx="15.654"/><rect fill="#FFF" x="25.402" y="90.097" width="11.724" height="23.481" rx="5.862"/><rect fill="#EFF3F6" x="132.874" y="90.097" width="11.724" height="23.481" rx="5.862"/><circle fill="#5F5890" cx="86" cy="125" r="7"/><path stroke="#FA2958" stroke-width="3" stroke-linecap="round" stroke-linejoin="round" d="M96 0L85 11.442h11L85 22"/><ellipse fill="#F92958" cx="93.5" cy="22.502" rx="1.5" ry="1.502"/><ellipse fill="#F92958" cx="87.5" cy="27.501" rx=".5" ry=".501"/><path d="M109.728 92.95l-7.81 7.81m7.81-.032l-7.81-7.81m-33.19.032l-7.81 7.81m7.81-.032l-7.81-7.81" stroke="#5F5890" stroke-width="3" stroke-linecap="round" stroke-linejoin="round"/><ellipse fill="#F92958" cx="83" cy="5.001" rx="1" ry="1.001"/></g></svg>